<svg xmlns="http://www.w3.org/2000/svg" viewBox="0 0 700 850" font-family="'Segoe UI', Tahoma, sans-serif">
  <defs><filter id="ds3"><feDropShadow dx="2" dy="2" stdDeviation="3" flood-color="#0a0a1a" flood-opacity="0.5"/></filter></defs>
  <rect width="700" height="850" fill="#1a1a1a" rx="8"/>
  <rect x="130" y="10" width="440" height="48" rx="6" fill="#2a1a2a" stroke="#6a3a6a" stroke-width="2"/>
  <text x="350" y="42" text-anchor="middle" fill="#cc88ff" font-size="20" font-weight="bold" letter-spacing="2">CIDADELA DAS SOMBRAS</text>
  <!-- Sala F: Ritual -->
  <rect x="200" y="75" width="300" height="110" rx="8" fill="#3a1a2a" stroke="#aa4466" stroke-width="3" filter="url(#ds3)"/>
  <circle cx="350" cy="130" r="25" fill="#4a1a3a" stroke="#cc4466" stroke-width="1.5" opacity="0.6"/>
  <text x="350" y="110" text-anchor="middle" fill="#ff8899" font-size="14" font-weight="bold">CAMARA DO RITUAL</text>
  <text x="350" y="128" text-anchor="middle" fill="#cc6677" font-size="11">(Sala F)</text>
  <text x="350" y="160" text-anchor="middle" fill="#ff6677" font-size="10">Cena 3.3: Confronto Final</text>
  <rect x="325" y="185" width="50" height="40" fill="#2a2a2a" stroke="#5a5a5a" stroke-width="1.5"/>
  <!-- Sala D: Grande Salao -->
  <rect x="150" y="225" width="400" height="130" rx="8" fill="#2a2a2a" stroke="#8a8a6a" stroke-width="3" filter="url(#ds3)"/>
  <circle cx="190" cy="260" r="8" fill="#5a5a4a" stroke="#8a8a6a" stroke-width="1.5"/>
  <circle cx="190" cy="320" r="8" fill="#5a5a4a" stroke="#8a8a6a" stroke-width="1.5"/>
  <circle cx="510" cy="260" r="8" fill="#5a5a4a" stroke="#8a8a6a" stroke-width="1.5"/>
  <circle cx="510" cy="320" r="8" fill="#5a5a4a" stroke="#8a8a6a" stroke-width="1.5"/>
  <circle cx="350" cy="290" r="30" fill="none" stroke="#6a3a6a" stroke-width="1.5" stroke-dasharray="4,3" opacity="0.6"/>
  <text x="350" y="275" text-anchor="middle" fill="#e0d0a0" font-size="16" font-weight="bold">GRANDE SALAO</text>
  <text x="350" y="295" text-anchor="middle" fill="#b0a080" font-size="11">(Sala D)</text>
  <text x="350" y="325" text-anchor="middle" fill="#cc6644" font-size="10">Young Black Dragon (Undead) CR 7</text>
  <rect x="165" y="355" width="50" height="40" fill="#2a2a2a" stroke="#5a5a5a" stroke-width="1.5"/>
  <rect x="485" y="355" width="50" height="40" fill="#2a2a2a" stroke="#5a5a5a" stroke-width="1.5"/>
  <!-- Sala C: Cripta -->
  <rect x="70" y="395" width="230" height="120" rx="8" fill="#2a2a1a" stroke="#6a6a4a" stroke-width="3" filter="url(#ds3)"/>
  <rect x="90" y="415" width="30" height="50" rx="3" fill="#3a3a2a" stroke="#5a5a3a" stroke-width="1.5"/>
  <rect x="130" y="415" width="30" height="50" rx="3" fill="#3a3a2a" stroke="#5a5a3a" stroke-width="1.5"/>
  <rect x="170" y="415" width="30" height="50" rx="3" fill="#3a3a2a" stroke="#5a5a3a" stroke-width="1.5"/>
  <rect x="210" y="415" width="30" height="50" rx="3" fill="#3a3a2a" stroke="#5a5a3a" stroke-width="1.5"/>
  <text x="185" y="490" text-anchor="middle" fill="#c0b080" font-size="13" font-weight="bold">CRIPTA DOS SERVOS</text>
  <text x="185" y="505" text-anchor="middle" fill="#a09060" font-size="10">(Sala C)</text>
  <!-- Sala E: Laboratorio -->
  <rect x="400" y="395" width="230" height="120" rx="8" fill="#1a2a2a" stroke="#4a8a6a" stroke-width="3" filter="url(#ds3)"/>
  <text x="515" y="450" text-anchor="middle" fill="#80cc99" font-size="13" font-weight="bold">LABORATORIO DE VALDRIS</text>
  <text x="515" y="470" text-anchor="middle" fill="#60aa80" font-size="10">(Sala E)</text>
  <text x="515" y="498" text-anchor="middle" fill="#70b080" font-size="9">Diario + Fraqueza do ritual</text>
  <rect x="165" y="515" width="50" height="40" fill="#2a2a2a" stroke="#5a5a5a" stroke-width="1.5"/>
  <!-- Sala B: Guarda -->
  <rect x="100" y="555" width="200" height="100" rx="8" fill="#2a2020" stroke="#7a4a4a" stroke-width="3" filter="url(#ds3)"/>
  <text x="200" y="590" text-anchor="middle" fill="#d0a0a0" font-size="13" font-weight="bold">SALA DA GUARDA</text>
  <text x="200" y="610" text-anchor="middle" fill="#b08080" font-size="10">(Sala B)</text>
  <text x="200" y="635" text-anchor="middle" fill="#cc6644" font-size="9">4 Skeletons + 2 Ghasts</text>
  <line x1="150" y1="655" x2="120" y2="700" stroke="#5a5a5a" stroke-width="2"/>
  <line x1="250" y1="655" x2="450" y2="700" stroke="#5a5a5a" stroke-width="2"/>
  <!-- A1: Portao Frontal -->
  <rect x="40" y="700" width="170" height="85" rx="8" fill="#3a2a1a" stroke="#8a6a3a" stroke-width="3" filter="url(#ds3)"/>
  <text x="125" y="730" text-anchor="middle" fill="#d0b070" font-size="13" font-weight="bold">PORTAO FRONTAL</text>
  <text x="125" y="750" text-anchor="middle" fill="#b09050" font-size="10">(Sala A1)</text>
  <text x="125" y="770" text-anchor="middle" fill="#cc6644" font-size="9">2 Minotaur Skeletons</text>
  <!-- A2: Entrada Lateral -->
  <rect x="380" y="700" width="220" height="85" rx="8" fill="#1a2a1a" stroke="#4a8a4a" stroke-width="3" filter="url(#ds3)"/>
  <text x="490" y="728" text-anchor="middle" fill="#80cc80" font-size="13" font-weight="bold">ENTRADA LATERAL</text>
  <text x="490" y="748" text-anchor="middle" fill="#60aa60" font-size="10">(Sala A2)</text>
  <text x="490" y="770" text-anchor="middle" fill="#70bb70" font-size="9">Chave de Vesper / Stealth</text>
  <rect x="40" y="800" width="620" height="40" rx="6" fill="#2a1a2a" stroke="#5a3a5a" stroke-width="1"/>
  <text x="60" y="818" fill="#c0a0c0" font-size="10">Boss: Dragao Negro Morto-Vivo (CR 7) | Entrada silenciosa | Intel sobre Valdris</text>
  <text x="60" y="833" fill="#c0a0c0" font-size="10">Furtivo: A2 - D - F | Frontal: A1 - B - C/D - F</text>
</svg>