<svg xmlns="http://www.w3.org/2000/svg" viewBox="0 0 700 650" font-family="'Segoe UI', Tahoma, sans-serif">
  <defs>
    <filter id="ds2"><feDropShadow dx="2" dy="2" stdDeviation="3" flood-color="#1a0a2a" flood-opacity="0.4"/></filter>
    <filter id="glow"><feGaussianBlur stdDeviation="4" result="blur"/><feMerge><feMergeNode in="blur"/><feMergeNode in="SourceGraphic"/></feMerge></filter>
  </defs>
  <rect width="700" height="650" fill="#1a1a2a" rx="8"/>
  <rect x="130" y="10" width="440" height="45" rx="6" fill="#3a1a1a" stroke="#8a3a3a" stroke-width="2"/>
  <text x="350" y="40" text-anchor="middle" fill="#ff6644" font-size="20" font-weight="bold" letter-spacing="2">ATAQUE NOTURNO - SOLARA</text>
  <rect x="210" y="70" width="280" height="100" rx="8" fill="#2a3a5a" stroke="#6090cc" stroke-width="3" filter="url(#ds2)"/>
  <rect x="195" y="55" width="310" height="130" rx="14" fill="none" stroke="#6090cc" stroke-width="1.5" opacity="0.4" stroke-dasharray="6,4"/>
  <text x="350" y="108" text-anchor="middle" fill="#a0c0ff" font-size="16" font-weight="bold">TEMPLO DA AURORA</text>
  <text x="350" y="128" text-anchor="middle" fill="#7090b0" font-size="11">Zona segura - Runas anti-undead</text>
  <text x="350" y="148" text-anchor="middle" fill="#6080a0" font-size="10">Civis refugiados aqui</text>
  <line x1="350" y1="170" x2="350" y2="210" stroke="#5070a0" stroke-width="2"/>
  <rect x="140" y="210" width="420" height="130" rx="8" fill="#2a2a20" stroke="#8a8a6a" stroke-width="3" filter="url(#ds2)"/>
  <text x="350" y="250" text-anchor="middle" fill="#d4c4a0" font-size="18" font-weight="bold">PRACA CENTRAL</text>
  <text x="350" y="272" text-anchor="middle" fill="#a09a80" font-size="12">(Fonte Seca)</text>
  <text x="350" y="308" text-anchor="middle" fill="#ffcc00" font-size="28" filter="url(#glow)">*</text>
  <text x="350" y="328" text-anchor="middle" fill="#ffcc00" font-size="11" font-weight="bold">Posicao inicial dos herois</text>
  <rect x="160" y="370" width="380" height="35" rx="4" fill="#5a4a2a" stroke="#8a7a4a" stroke-width="2.5"/>
  <line x1="170" y1="380" x2="530" y2="380" stroke="#a09060" stroke-width="3"/>
  <line x1="170" y1="395" x2="530" y2="395" stroke="#a09060" stroke-width="3"/>
  <text x="350" y="393" text-anchor="middle" fill="#e0d0a0" font-size="13" font-weight="bold">BARRICADAS</text>
  <text x="555" y="393" fill="#b0a070" font-size="10">HP 15 AC 12</text>
  <rect x="120" y="420" width="460" height="140" rx="4" fill="#1a1a10" stroke="#4a4a3a" stroke-width="1" stroke-dasharray="4,4"/>
  <circle cx="200" cy="450" r="12" fill="#4a1a1a" stroke="#aa3333" stroke-width="2"/>
  <text x="200" y="455" text-anchor="middle" fill="#ff5544" font-size="12" font-weight="bold">1</text>
  <text x="220" y="455" fill="#cc4433" font-size="10" font-weight="bold">Onda 1: 8 Skeletons + 4 Zombies (Facil 600 XP)</text>
  <circle cx="200" cy="490" r="12" fill="#4a2a1a" stroke="#cc6633" stroke-width="2"/>
  <text x="200" y="495" text-anchor="middle" fill="#ff8844" font-size="12" font-weight="bold">2</text>
  <text x="220" y="495" fill="#dd7733" font-size="10" font-weight="bold">Onda 2: 2 Ghasts + 2 Specters (Medio 1.300 XP)</text>
  <circle cx="200" cy="530" r="12" fill="#2a1a2a" stroke="#9933cc" stroke-width="2"/>
  <text x="200" y="535" text-anchor="middle" fill="#cc66ff" font-size="12" font-weight="bold">3</text>
  <text x="220" y="535" fill="#bb55cc" font-size="10" font-weight="bold">Onda 3: 1 Wight + 4 Skeletons (Medio 900 XP)</text>
  <line x1="180" y1="560" x2="180" y2="430" stroke="#aa3333" stroke-width="2" stroke-dasharray="6,4" opacity="0.6"/>
  <polygon points="180,425 175,435 185,435" fill="#aa3333" opacity="0.6"/>
  <line x1="520" y1="560" x2="520" y2="430" stroke="#aa3333" stroke-width="2" stroke-dasharray="6,4" opacity="0.6"/>
  <polygon points="520,425 515,435 525,435" fill="#aa3333" opacity="0.6"/>
  <text x="350" y="575" text-anchor="middle" fill="#aa4433" font-size="11" font-style="italic">Mortos-vivos avancam</text>
  <rect x="40" y="595" width="620" height="45" rx="6" fill="#2a1a1a" stroke="#5a3a3a" stroke-width="1"/>
  <text x="60" y="615" fill="#d0b080" font-size="10">Herois | Templo seguro | Barricadas destrutiveis</text>
  <text x="60" y="632" fill="#d0b080" font-size="10">Objetivo: Proteger templo por 5 rodadas | XP Total: 2.800 (700/jogador)</text>
</svg>