<svg xmlns="http://www.w3.org/2000/svg" viewBox="0 0 900 700" width="900" height="700">
  <defs>
    <filter id="shadow">
      <feDropShadow dx="1" dy="1" stdDeviation="1.5" flood-color="#3a2a1a" flood-opacity="0.4"/>
    </filter>
    <radialGradient id="parchGrad" cx="50%" cy="50%" r="60%">
      <stop offset="0%" stop-color="#f0e6d0"/>
      <stop offset="100%" stop-color="#c4a97a"/>
    </radialGradient>
    <radialGradient id="corruptGlow" cx="50%" cy="50%" r="50%">
      <stop offset="0%" stop-color="#7b2d8e" stop-opacity="0.3"/>
      <stop offset="100%" stop-color="#7b2d8e" stop-opacity="0"/>
    </radialGradient>
    <g id="tree">
      <line x1="0" y1="3" x2="0" y2="8" stroke="#4a3520" stroke-width="1.5"/>
      <circle cx="0" cy="0" r="4" fill="#2d5a1e" stroke="#1a3a10" stroke-width="0.5"/>
    </g>
    <g id="darkTree">
      <line x1="0" y1="3" x2="0" y2="8" stroke="#2a1a10" stroke-width="1.5"/>
      <circle cx="0" cy="0" r="4.5" fill="#1a3a20" stroke="#0a2a10" stroke-width="0.5"/>
    </g>
    <g id="deadTree">
      <line x1="0" y1="-5" x2="0" y2="8" stroke="#3a2a1a" stroke-width="1.5"/>
      <line x1="0" y1="-2" x2="-4" y2="-6" stroke="#3a2a1a" stroke-width="1"/>
      <line x1="0" y1="-3" x2="3" y2="-7" stroke="#3a2a1a" stroke-width="1"/>
      <line x1="0" y1="0" x2="-3" y2="-3" stroke="#3a2a1a" stroke-width="0.8"/>
    </g>
    <g id="mountain">
      <polygon points="0,-12 -8,4 8,4" fill="#8a7a6a" stroke="#5a4a3a" stroke-width="1"/>
      <polygon points="0,-12 -3,-4 3,-4" fill="#c4b4a4" stroke="none"/>
    </g>
    <g id="house">
      <rect x="-3" y="-1" width="6" height="5" fill="#b89a70" stroke="#5a4030" stroke-width="0.8"/>
      <polygon points="-4,-1 0,-5 4,-1" fill="#8b4513" stroke="#5a3010" stroke-width="0.8"/>
    </g>
    <g id="swampGrass">
      <line x1="-2" y1="3" x2="-3" y2="-3" stroke="#4a6a30" stroke-width="0.8"/>
      <line x1="0" y1="3" x2="1" y2="-4" stroke="#3a5a20" stroke-width="0.8"/>
      <line x1="2" y1="3" x2="3" y2="-2" stroke="#4a6a30" stroke-width="0.8"/>
    </g>
  </defs>
  <rect width="900" height="700" fill="#e8d5b7"/>
  <rect width="900" height="700" fill="url(#parchGrad)" opacity="0.4"/>
  <rect x="0" y="0" width="900" height="700" fill="none" stroke="#8a6a40" stroke-width="12"/>
  <rect x="6" y="6" width="888" height="688" fill="none" stroke="#a0845a" stroke-width="2"/>
  <rect x="10" y="10" width="880" height="680" fill="none" stroke="#b8a070" stroke-width="1" stroke-dasharray="4,4"/>
  <g stroke="#7a5a30" stroke-width="1.5" fill="none">
    <path d="M 20,20 L 20,50 M 20,20 L 50,20"/>
    <path d="M 880,20 L 880,50 M 880,20 L 850,20"/>
    <path d="M 20,680 L 20,650 M 20,680 L 50,680"/>
    <path d="M 880,680 L 880,650 M 880,680 L 850,680"/>
    <circle cx="20" cy="20" r="3" fill="#7a5a30"/>
    <circle cx="880" cy="20" r="3" fill="#7a5a30"/>
    <circle cx="20" cy="680" r="3" fill="#7a5a30"/>
    <circle cx="880" cy="680" r="3" fill="#7a5a30"/>
  </g>
  <rect x="220" y="22" width="460" height="50" rx="3" fill="#5a3520" opacity="0.85"/>
  <rect x="222" y="24" width="456" height="46" rx="2" fill="none" stroke="#c4a060" stroke-width="1"/>
  <text x="450" y="55" text-anchor="middle" font-family="Georgia, serif" font-size="26" fill="#e8d5b7" font-weight="bold" letter-spacing="3">A COROA DO CREPÚSCULO</text>
  <text x="450" y="64" text-anchor="middle" font-family="Georgia, serif" font-size="10" fill="#c4a060" letter-spacing="2">MAPA REGIONAL</text>
  <g transform="translate(810,620)" filter="url(#shadow)">
    <circle cx="0" cy="0" r="28" fill="#e8d5b7" stroke="#5a3520" stroke-width="1.5"/>
    <circle cx="0" cy="0" r="25" fill="none" stroke="#8a6a40" stroke-width="0.5"/>
    <polygon points="0,-22 3,-6 -3,-6" fill="#5a3520"/>
    <polygon points="0,22 3,6 -3,6" fill="#8a6a40"/>
    <polygon points="-22,0 -6,3 -6,-3" fill="#8a6a40"/>
    <polygon points="22,0 6,3 6,-3" fill="#8a6a40"/>
    <polygon points="0,-22 2,-6 -2,-6" fill="#8b0000"/>
    <text x="0" y="-28" text-anchor="middle" font-family="Georgia, serif" font-size="10" fill="#5a3520" font-weight="bold">N</text>
    <text x="0" y="38" text-anchor="middle" font-family="Georgia, serif" font-size="8" fill="#8a6a40">S</text>
    <text x="-32" y="4" text-anchor="middle" font-family="Georgia, serif" font-size="8" fill="#8a6a40">O</text>
    <text x="32" y="4" text-anchor="middle" font-family="Georgia, serif" font-size="8" fill="#8a6a40">L</text>
    <circle cx="0" cy="0" r="3" fill="#5a3520"/>
  </g>
  <g opacity="0.2">
    <path d="M 50,300 Q 120,280 200,320 Q 250,340 180,380 Q 110,400 50,350 Z" fill="#c4b060"/>
    <path d="M 80,200 Q 140,180 170,220 Q 190,260 130,270 Q 80,260 80,200 Z" fill="#c4b060"/>
  </g>
  <g opacity="0.3">
    <path d="M 280,100 Q 400,80 550,100 Q 700,120 780,200 Q 820,300 800,420 Q 780,500 700,540 Q 600,560 480,530 Q 380,500 320,440 Q 270,370 260,280 Q 260,180 280,100 Z" fill="#1a4a1e"/>
  </g>
  <g opacity="0.25">
    <path d="M 490,340 Q 540,310 600,330 Q 650,350 640,400 Q 620,440 560,440 Q 500,430 490,380 Z" fill="#3a5a40"/>
  </g>
  <circle cx="680" cy="260" r="80" fill="url(#corruptGlow)"/>
  <g opacity="0.7">
    <use href="#tree" x="250" y="200"/><use href="#tree" x="260" y="230"/><use href="#tree" x="255" y="260"/><use href="#tree" x="265" y="290"/><use href="#tree" x="260" y="320"/><use href="#tree" x="270" y="350"/><use href="#tree" x="275" y="380"/><use href="#tree" x="285" y="400"/><use href="#tree" x="300" y="420"/><use href="#tree" x="320" y="440"/><use href="#tree" x="350" y="455"/><use href="#tree" x="380" y="465"/>
    <use href="#darkTree" x="300" y="180"/><use href="#darkTree" x="330" y="160"/><use href="#darkTree" x="360" y="150"/><use href="#darkTree" x="390" y="140"/><use href="#darkTree" x="420" y="130"/><use href="#darkTree" x="450" y="125"/><use href="#darkTree" x="480" y="130"/><use href="#darkTree" x="510" y="140"/><use href="#darkTree" x="540" y="135"/><use href="#darkTree" x="570" y="140"/><use href="#darkTree" x="600" y="150"/><use href="#darkTree" x="630" y="155"/><use href="#darkTree" x="660" y="165"/><use href="#darkTree" x="690" y="170"/><use href="#darkTree" x="720" y="180"/><use href="#darkTree" x="740" y="200"/>
    <use href="#darkTree" x="310" y="210"/><use href="#darkTree" x="340" y="200"/><use href="#darkTree" x="370" y="190"/><use href="#darkTree" x="400" y="180"/><use href="#darkTree" x="430" y="170"/><use href="#darkTree" x="460" y="165"/><use href="#darkTree" x="490" y="170"/><use href="#darkTree" x="520" y="175"/><use href="#darkTree" x="550" y="170"/><use href="#darkTree" x="580" y="180"/><use href="#darkTree" x="610" y="185"/><use href="#darkTree" x="640" y="195"/><use href="#darkTree" x="670" y="200"/><use href="#darkTree" x="700" y="210"/><use href="#darkTree" x="730" y="225"/><use href="#darkTree" x="750" y="250"/>
    <use href="#darkTree" x="290" y="250"/><use href="#darkTree" x="320" y="240"/><use href="#darkTree" x="350" y="230"/><use href="#darkTree" x="380" y="220"/><use href="#darkTree" x="410" y="210"/><use href="#darkTree" x="440" y="200"/><use href="#darkTree" x="470" y="210"/><use href="#darkTree" x="500" y="220"/><use href="#darkTree" x="530" y="215"/><use href="#darkTree" x="560" y="220"/><use href="#darkTree" x="590" y="230"/><use href="#darkTree" x="620" y="235"/><use href="#darkTree" x="650" y="245"/><use href="#darkTree" x="710" y="250"/><use href="#darkTree" x="750" y="280"/><use href="#darkTree" x="760" y="310"/>
    <use href="#darkTree" x="290" y="290"/><use href="#darkTree" x="310" y="275"/><use href="#darkTree" x="340" y="265"/><use href="#darkTree" x="370" y="255"/><use href="#darkTree" x="400" y="250"/><use href="#darkTree" x="430" y="240"/><use href="#darkTree" x="460" y="250"/><use href="#darkTree" x="530" y="260"/><use href="#darkTree" x="560" y="270"/><use href="#darkTree" x="590" y="275"/><use href="#darkTree" x="620" y="280"/><use href="#darkTree" x="710" y="290"/><use href="#darkTree" x="750" y="340"/><use href="#darkTree" x="740" y="370"/>
    <use href="#darkTree" x="300" y="330"/><use href="#darkTree" x="330" y="310"/><use href="#darkTree" x="360" y="300"/><use href="#darkTree" x="390" y="290"/><use href="#darkTree" x="420" y="280"/><use href="#darkTree" x="450" y="290"/><use href="#darkTree" x="480" y="300"/><use href="#darkTree" x="710" y="330"/><use href="#darkTree" x="730" y="400"/><use href="#darkTree" x="720" y="430"/>
    <use href="#darkTree" x="310" y="360"/><use href="#darkTree" x="340" y="345"/><use href="#darkTree" x="370" y="335"/><use href="#darkTree" x="400" y="320"/><use href="#darkTree" x="430" y="310"/><use href="#darkTree" x="460" y="320"/><use href="#darkTree" x="490" y="330"/><use href="#darkTree" x="700" y="370"/><use href="#darkTree" x="690" y="400"/><use href="#darkTree" x="680" y="430"/>
    <use href="#darkTree" x="330" y="380"/><use href="#darkTree" x="360" y="370"/><use href="#darkTree" x="390" y="355"/><use href="#darkTree" x="420" y="345"/><use href="#darkTree" x="450" y="350"/><use href="#darkTree" x="480" y="360"/><use href="#darkTree" x="660" y="450"/><use href="#darkTree" x="640" y="470"/><use href="#darkTree" x="620" y="480"/>
    <use href="#darkTree" x="350" y="400"/><use href="#darkTree" x="380" y="390"/><use href="#darkTree" x="410" y="380"/><use href="#darkTree" x="440" y="375"/><use href="#darkTree" x="470" y="385"/><use href="#darkTree" x="500" y="400"/><use href="#darkTree" x="600" y="490"/><use href="#darkTree" x="570" y="495"/><use href="#darkTree" x="540" y="490"/>
    <use href="#darkTree" x="400" y="420"/><use href="#darkTree" x="430" y="410"/><use href="#darkTree" x="460" y="415"/><use href="#darkTree" x="490" y="430"/><use href="#darkTree" x="510" y="470"/><use href="#darkTree" x="480" y="480"/><use href="#darkTree" x="450" y="465"/>
  </g>
  <g opacity="0.6">
    <use href="#deadTree" x="640" y="240"/><use href="#deadTree" x="660" y="220"/><use href="#deadTree" x="700" y="240"/><use href="#deadTree" x="720" y="260"/><use href="#deadTree" x="660" y="280"/><use href="#deadTree" x="700" y="300"/>
  </g>
  <g opacity="0.5">
    <use href="#swampGrass" x="510" y="360"/><use href="#swampGrass" x="530" y="350"/><use href="#swampGrass" x="550" y="370"/><use href="#swampGrass" x="570" y="355"/><use href="#swampGrass" x="590" y="370"/><use href="#swampGrass" x="520" y="380"/><use href="#swampGrass" x="550" y="395"/><use href="#swampGrass" x="580" y="390"/><use href="#swampGrass" x="610" y="380"/><use href="#swampGrass" x="540" y="410"/><use href="#swampGrass" x="570" y="420"/><use href="#swampGrass" x="600" y="410"/><use href="#swampGrass" x="620" y="400"/>
  </g>
  <g opacity="0.3">
    <ellipse cx="540" cy="370" rx="15" ry="8" fill="#4a6a5a"/><ellipse cx="580" cy="400" rx="12" ry="6" fill="#4a6a5a"/><ellipse cx="560" cy="420" rx="10" ry="5" fill="#4a6a5a"/><ellipse cx="610" cy="385" rx="8" ry="4" fill="#4a6a5a"/>
  </g>
  <path d="M 30,340 Q 60,330 90,335 Q 120,340 150,330" stroke="#8a7a60" stroke-width="4" fill="none" stroke-linecap="round" opacity="0.6"/>
  <path d="M 150,330 Q 200,340 240,310 Q 280,280 320,270 Q 370,260 420,270 Q 470,280 500,290" stroke="#6a5a40" stroke-width="3" fill="none" stroke-linecap="round" stroke-dasharray="8,4" opacity="0.5"/>
  <path d="M 420,270 Q 440,310 460,340 Q 475,355 490,355" stroke="#5a4a30" stroke-width="2" fill="none" stroke-linecap="round" stroke-dasharray="4,4" opacity="0.4"/>
  <path d="M 500,290 Q 530,310 550,340 Q 560,360 565,380" stroke="#5a4a30" stroke-width="2" fill="none" stroke-linecap="round" stroke-dasharray="4,4" opacity="0.4"/>
  <path d="M 565,380 Q 600,350 630,310 Q 660,280 680,260" stroke="#5a4a30" stroke-width="2" fill="none" stroke-linecap="round" stroke-dasharray="4,4" opacity="0.4"/>
  <g transform="translate(150,310)" filter="url(#shadow)">
    <use href="#house" x="-15" y="0"/><use href="#house" x="0" y="-5"/><use href="#house" x="15" y="0"/><use href="#house" x="-8" y="10"/><use href="#house" x="8" y="10"/>
    <line x1="0" y1="-10" x2="0" y2="-30" stroke="#5a4030" stroke-width="3"/><line x1="0" y1="-20" x2="-12" y2="-35" stroke="#5a4030" stroke-width="2"/><line x1="0" y1="-22" x2="10" y2="-38" stroke="#5a4030" stroke-width="2"/><line x1="0" y1="-15" x2="-8" y2="-25" stroke="#5a4030" stroke-width="1.5"/><line x1="0" y1="-18" x2="7" y2="-28" stroke="#5a4030" stroke-width="1.5"/>
  </g>
  <g transform="translate(150,350)">
    <rect x="-70" y="-2" width="140" height="18" rx="2" fill="#e8d5b7" fill-opacity="0.85" stroke="#8a6a40" stroke-width="0.5"/>
    <text x="0" y="12" text-anchor="middle" font-family="Georgia, serif" font-size="11" fill="#3a2010" font-weight="bold">Vila de Raízes Profundas</text>
  </g>
  <g transform="translate(150,375)">
    <rect x="-20" y="-2" width="40" height="14" rx="2" fill="#5a3520" opacity="0.8"/>
    <text x="0" y="9" text-anchor="middle" font-family="Georgia, serif" font-size="8" fill="#e8d5b7" font-style="italic">Ato 1</text>
  </g>
  <g transform="translate(490,355)" filter="url(#shadow)">
    <circle cx="0" cy="0" r="12" fill="#2a1a2a" fill-opacity="0.4" stroke="#7b2d8e" stroke-width="1.5" stroke-dasharray="3,2"/>
    <use href="#deadTree" x="-5" y="-2"/><use href="#deadTree" x="5" y="2"/>
  </g>
  <g transform="translate(490,380)">
    <rect x="-52" y="-2" width="104" height="16" rx="2" fill="#e8d5b7" fill-opacity="0.85" stroke="#7b2d8e" stroke-width="0.5"/>
    <text x="0" y="10" text-anchor="middle" font-family="Georgia, serif" font-size="10" fill="#4a1a4a" font-style="italic">Bosque Corrompido</text>
  </g>
  <g transform="translate(565,390)" filter="url(#shadow)">
    <line x1="-5" y1="5" x2="-5" y2="-2" stroke="#5a4a30" stroke-width="1"/><line x1="5" y1="5" x2="5" y2="-2" stroke="#5a4a30" stroke-width="1"/>
    <rect x="-7" y="-8" width="14" height="6" fill="#6a5a40" stroke="#3a2a10" stroke-width="0.8"/>
    <polygon points="-8,-8 0,-14 8,-8" fill="#4a3a20" stroke="#3a2a10" stroke-width="0.8"/>
    <path d="M 0,-14 Q -3,-20 1,-25 Q -2,-30 0,-35" stroke="#4a8a40" stroke-width="1.5" fill="none" opacity="0.5"/>
  </g>
  <g transform="translate(565,420)">
    <rect x="-55" y="-2" width="110" height="16" rx="2" fill="#e8d5b7" fill-opacity="0.85" stroke="#4a6a40" stroke-width="0.5"/>
    <text x="0" y="10" text-anchor="middle" font-family="Georgia, serif" font-size="10" fill="#2a4a20" font-style="italic">Pantano de Thessara</text>
  </g>
  <g transform="translate(680,250)" filter="url(#shadow)">
    <rect x="-15" y="-5" width="4" height="15" fill="#9a8a7a" stroke="#5a4a3a" stroke-width="0.5"/><rect x="11" y="-8" width="4" height="18" fill="#9a8a7a" stroke="#5a4a3a" stroke-width="0.5"/><rect x="-3" y="-12" width="6" height="22" fill="#a09080" stroke="#5a4a3a" stroke-width="0.5"/>
    <rect x="-15" y="-5" width="4" height="8" fill="#b0a090"/><polygon points="-15,-5 -11,-5 -12,-8" fill="#9a8a7a"/>
    <rect x="-5" y="10" width="10" height="3" fill="#7a6a5a" stroke="#5a4a3a" stroke-width="0.5"/><rect x="-4" y="13" width="8" height="3" fill="#6a5a4a" stroke="#5a4a3a" stroke-width="0.5"/><rect x="-3" y="16" width="6" height="3" fill="#5a4a3a" stroke="#4a3a2a" stroke-width="0.5"/>
    <circle cx="0" cy="5" r="20" fill="url(#corruptGlow)" opacity="0.5"/>
  </g>
  <g transform="translate(680,285)">
    <rect x="-55" y="-2" width="110" height="18" rx="2" fill="#e8d5b7" fill-opacity="0.85" stroke="#5a4a3a" stroke-width="0.5"/>
    <text x="0" y="12" text-anchor="middle" font-family="Georgia, serif" font-size="11" fill="#3a2010" font-weight="bold">Ruinas de Aelindor</text>
  </g>
  <g transform="translate(680,310)">
    <rect x="-20" y="-2" width="40" height="14" rx="2" fill="#5a3520" opacity="0.8"/>
    <text x="0" y="9" text-anchor="middle" font-family="Georgia, serif" font-size="8" fill="#e8d5b7" font-style="italic">Ato 3</text>
  </g>
  <g transform="translate(680,345)">
    <path d="M 0,0 L 0,20" stroke="#7b2d8e" stroke-width="1.5"/>
    <polygon points="-4,18 0,24 4,18" fill="#7b2d8e"/>
    <rect x="-65" y="26" width="130" height="22" rx="3" fill="#2a1030" fill-opacity="0.85" stroke="#7b2d8e" stroke-width="1"/>
    <text x="0" y="41" text-anchor="middle" font-family="Georgia, serif" font-size="10" fill="#d4a0e0" font-weight="bold">Santuario do Crepusculo</text>
    <text x="0" y="52" text-anchor="middle" font-family="Georgia, serif" font-size="8" fill="#a070c0" font-style="italic">Ato 4 — Subterraneo</text>
  </g>
  <g transform="translate(420,470)">
    <rect x="-72" y="-2" width="144" height="18" rx="2" fill="#1a3a20" fill-opacity="0.8"/>
    <text x="0" y="12" text-anchor="middle" font-family="Georgia, serif" font-size="11" fill="#a0c890" font-weight="bold" letter-spacing="2">FLORESTA DE VEU SOMBRIO</text>
  </g>
  <g transform="translate(420,495)">
    <rect x="-20" y="-2" width="40" height="14" rx="2" fill="#5a3520" opacity="0.8"/>
    <text x="0" y="9" text-anchor="middle" font-family="Georgia, serif" font-size="8" fill="#e8d5b7" font-style="italic">Ato 2</text>
  </g>
  <g opacity="0.6">
    <use href="#mountain" x="100" y="120"/><use href="#mountain" x="130" y="130"/><use href="#mountain" x="160" y="115"/><use href="#mountain" x="190" y="125"/><use href="#mountain" x="220" y="110"/><use href="#mountain" x="750" y="130"/><use href="#mountain" x="780" y="120"/><use href="#mountain" x="810" y="135"/><use href="#mountain" x="840" y="125"/>
  </g>
  <g opacity="0.5">
    <use href="#tree" x="80" y="290"/><use href="#tree" x="100" y="310"/><use href="#tree" x="60" y="350"/><use href="#tree" x="200" y="280"/><use href="#tree" x="220" y="300"/><use href="#tree" x="110" y="250"/>
  </g>
  <path d="M 30,450 Q 80,430 130,450 Q 180,470 230,450 Q 300,420 350,440 Q 420,460 500,440" stroke="#6a8aaa" stroke-width="3" fill="none" opacity="0.4" stroke-linecap="round"/>
  <path d="M 30,453 Q 80,433 130,453 Q 180,473 230,453 Q 300,423 350,443 Q 420,463 500,443" stroke="#5a7a9a" stroke-width="1" fill="none" opacity="0.3" stroke-linecap="round"/>
  <text x="180" y="475" text-anchor="middle" font-family="Georgia, serif" font-size="9" fill="#5a7a9a" font-style="italic" opacity="0.6">Rio das Sombras</text>
  <g transform="translate(50,540)">
    <rect x="-15" y="-15" width="180" height="130" rx="3" fill="#e8d5b7" fill-opacity="0.9" stroke="#8a6a40" stroke-width="1"/>
    <text x="75" y="2" text-anchor="middle" font-family="Georgia, serif" font-size="10" fill="#3a2010" font-weight="bold" letter-spacing="1">LEGENDA</text>
    <line x1="-5" y1="7" x2="155" y2="7" stroke="#8a6a40" stroke-width="0.5"/>
    <use href="#house" x="10" y="22"/><text x="30" y="26" font-family="Georgia, serif" font-size="9" fill="#3a2010">Vila / Construcao</text>
    <use href="#darkTree" x="10" y="42"/><text x="30" y="46" font-family="Georgia, serif" font-size="9" fill="#3a2010">Floresta Densa</text>
    <use href="#deadTree" x="10" y="62"/><text x="30" y="66" font-family="Georgia, serif" font-size="9" fill="#3a2010">Area Corrompida</text>
    <use href="#mountain" x="10" y="82"/><text x="30" y="82" font-family="Georgia, serif" font-size="9" fill="#3a2010">Montanhas</text>
    <line x1="2" y1="96" x2="18" y2="96" stroke="#6a5a40" stroke-width="2" stroke-dasharray="4,2"/><text x="30" y="100" font-family="Georgia, serif" font-size="9" fill="#3a2010">Trilha / Caminho</text>
  </g>
  <g transform="translate(760,555)">
    <text x="0" y="0" font-family="Georgia, serif" font-size="9" fill="#5a3a1a" font-style="italic">Escala aproximada</text>
    <line x1="0" y1="8" x2="80" y2="8" stroke="#5a3a1a" stroke-width="1.5"/><line x1="0" y1="5" x2="0" y2="11" stroke="#5a3a1a" stroke-width="1"/><line x1="40" y1="5" x2="40" y2="11" stroke="#5a3a1a" stroke-width="1"/><line x1="80" y1="5" x2="80" y2="11" stroke="#5a3a1a" stroke-width="1"/>
    <text x="0" y="20" font-family="Georgia, serif" font-size="8" fill="#5a3a1a">0</text><text x="37" y="20" font-family="Georgia, serif" font-size="8" fill="#5a3a1a">5 km</text><text x="72" y="20" font-family="Georgia, serif" font-size="8" fill="#5a3a1a">10 km</text>
  </g>
  <g transform="translate(130,460)"><text x="0" y="0" font-family="Georgia, serif" font-size="8" fill="#7a5a30" font-style="italic">~1/2 dia de marcha</text></g>
  <g transform="translate(500,305)"><text x="0" y="0" font-family="Georgia, serif" font-size="8" fill="#7a5a30" font-style="italic" transform="rotate(-30)">~1 dia de marcha</text></g>
  <g transform="translate(615,310)"><text x="0" y="0" font-family="Georgia, serif" font-size="8" fill="#7a5a30" font-style="italic" transform="rotate(-50)">~1/2 dia</text></g>
  <g filter="url(#shadow)">
    <circle cx="100" cy="340" r="10" fill="#5a3520" opacity="0.85"/><text x="100" y="344" text-anchor="middle" font-family="Georgia, serif" font-size="10" fill="#e8d5b7" font-weight="bold">1</text>
    <circle cx="350" cy="258" r="10" fill="#1a4a1e" opacity="0.85"/><text x="350" y="262" text-anchor="middle" font-family="Georgia, serif" font-size="10" fill="#a0c890" font-weight="bold">2</text>
    <circle cx="680" cy="225" r="10" fill="#5a4a3a" opacity="0.85"/><text x="680" y="229" text-anchor="middle" font-family="Georgia, serif" font-size="10" fill="#e8d5b7" font-weight="bold">3</text>
  </g>
</svg>